<svg id="Layer_1" data-name="Layer 1" xmlns="http://www.w3.org/2000/svg" xmlns:xlink="http://www.w3.org/1999/xlink" viewBox="0 0 790.71 765.52"><defs><style>.cls-1{fill:none;clip-rule:evenodd;}.cls-2{clip-path:url(#clip-path);}.cls-3{fill:url(#linear-gradient);}</style><clipPath id="clip-path" transform="translate(-3104.65 -1936.57)"><path class="cls-1" d="M3500,1999.56a24.33,24.33,0,1,1,24.32-24.32,24.32,24.32,0,0,1-24.32,24.32m0,224.55a174.52,174.52,0,0,0,95.23,95.22,174.47,174.47,0,0,0-95.23,95.23,174.49,174.49,0,0,0-95.22-95.23A174.5,174.5,0,0,0,3500,2224.11Zm-70.66-212.33c-78.75-48.7-184.7-32.56-206,73.29a152.66,152.66,0,0,0-2.55,46.89c-116.13,94.28-115.76,278.53.27,372.45-1.89,14.74-1.35,31.13,2.28,49.18,29.89,148.5,224.16,118.37,276.67-8.8,52.51,127.17,246.78,157.3,276.67,8.8,3.63-18.05,4.17-34.44,2.28-49.18,116-93.92,116.4-278.17.27-372.45a152.66,152.66,0,0,0-2.55-46.89c-29.89-148.5-224.16-118.37-276.67,8.8C3485.4,2058.51,3459.55,2030.47,3429.34,2011.78ZM3159.5,2332.07h180.29c81.09,0,147.47,66.39,147.47,147.47,0,146.7-210.54,210.71-239.05,69.07-22.2-110.33,92.33-137.38,129.53-100.4,35.23,35-7.9,88.44-43.16,62.62-13.45-9.85-28.47,10.66-15,20.5,60.62,44.39,133.47-44.1,76.09-101.13-42.94-42.68-139.32-25.56-167.62,46.67C3186,2438.55,3162.8,2383.64,3159.5,2332.07ZM3416,2033.38c82.88,51.25,95.33,162.49,27.93,229.88a147,147,0,0,1-104.25,43.33H3159.36c2.6-51.86,25.77-107.87,67.93-146.74,27.41,74,125.13,91.58,168.36,48.61,57.38-57-15.47-145.52-76.09-101.13-13.45,9.84,1.57,30.35,15,20.5,35.26-25.82,78.39,27.61,43.16,62.62-37.2,37-151.74,9.93-129.53-100.4C3266,2001.68,3353.11,1994.49,3416,2033.38Zm244.21,298.69H3840.5c-3.3,51.57-26.54,106.48-68.52,144.8-28.3-72.23-124.69-89.35-167.63-46.67-57.38,57,15.48,145.52,76.1,101.13,13.44-9.84-1.58-30.35-15-20.5-35.26,25.82-78.39-27.6-43.16-62.62,37.2-37,151.74-9.93,129.53,100.4-28.51,141.64-239.05,77.63-239.05-69.07C3512.74,2398.46,3579.13,2332.07,3660.21,2332.07Zm-147.47-173c0-146.7,210.54-210.71,239.05-69.07,22.21,110.33-92.32,137.38-129.53,100.4-35.23-35,7.9-88.44,43.16-62.62,13.45,9.85,28.47-10.66,15-20.5-60.62-44.39-133.48,44.1-76.1,101.13,43.23,43,141,25.41,168.36-48.61,42.16,38.87,65.33,94.88,67.94,146.74H3660.21C3578.2,2306,3512.74,2239.94,3512.74,2159.12Zm-12.74,480a24.33,24.33,0,1,0,24.32,24.33A24.32,24.32,0,0,0,3500,2639.1Z"/></clipPath><linearGradient id="linear-gradient" x1="219.72" y1="81.76" x2="554.26" y2="655.09" gradientUnits="userSpaceOnUse"><stop offset="0" stop-color="#dda66e"/><stop offset="1" stop-color="#988064"/></linearGradient></defs><g class="cls-2"><rect class="cls-3" width="790.71" height="765.52"/></g></svg>