<svg id="objects" xmlns="http://www.w3.org/2000/svg" viewBox="0 0 355.13 341.72"><defs><style>.cls-1{fill:#a39471;}.cls-2{fill:#cabfa3;}.cls-3,.cls-7{fill:#f2f1f0;}.cls-4{fill:#f0f2e9;}.cls-5{fill:#fffcee;}.cls-6{fill:#f1eedd;}.cls-7{opacity:0.8;}.cls-8{fill:#e21734;}.cls-9{fill:#ffab6d;}.cls-10{fill:#ff7f42;}.cls-11{fill:#252930;}.cls-12{fill:#bdd1b8;}.cls-13{fill:#474754;}.cls-14{fill:#5e5e68;}.cls-15{fill:#f7904b;}.cls-16{fill:#d35e0d;}.cls-17{fill:#fa2c40;}.cls-18{fill:#303047;}.cls-19{fill:#97d3de;}.cls-20{fill:#576570;}.cls-21{fill:#793a4f;}.cls-22{fill:#742b1a;}.cls-23{fill:#66648b;}.cls-24{fill:#88929b;}</style></defs><rect class="cls-1" x="141.81" y="127.11" width="137.97" height="198.88"/><rect class="cls-1" x="145.27" y="139.7" width="15.35" height="11.21"/><path class="cls-2" d="M196.27,207.13a1.21,1.21,0,1,1-1.2-1.2A1.21,1.21,0,0,1,196.27,207.13Z" transform="translate(-47.44 -61.76)"/><path class="cls-1" d="M206.79,207.13a1.21,1.21,0,1,1-1.21-1.2A1.21,1.21,0,0,1,206.79,207.13Z" transform="translate(-47.44 -61.76)"/><path class="cls-2" d="M327.23,77.42V205.5h-138V77.42a15.66,15.66,0,0,1,15.67-15.66H311.56A15.67,15.67,0,0,1,327.23,77.42Z" transform="translate(-47.44 -61.76)"/><path class="cls-3" d="M320.55,82.86V198.55H195.93V82.86a14.14,14.14,0,0,1,14.15-14.14H306.4A14.14,14.14,0,0,1,320.55,82.86Z" transform="translate(-47.44 -61.76)"/><path class="cls-4" d="M313.05,82.32V193.57H203.43V82.32c0-7.51,5.57-13.6,12.45-13.6H300.6C307.48,68.72,313.05,74.81,313.05,82.32Z" transform="translate(-47.44 -61.76)"/><path class="cls-5" d="M185.41,77.42V205.5h-138V77.42A15.66,15.66,0,0,1,63.1,61.76H169.75A15.66,15.66,0,0,1,185.41,77.42Z" transform="translate(-47.44 -61.76)"/><path class="cls-2" d="M179.17,82.51V199H53.68V82.51A14.25,14.25,0,0,1,67.93,68.26h97A14.25,14.25,0,0,1,179.17,82.51Z" transform="translate(-47.44 -61.76)"/><path class="cls-4" d="M179.17,82.51V199H62.37V82.51A14.24,14.24,0,0,1,76.61,68.26h88.31A14.25,14.25,0,0,1,179.17,82.51Z" transform="translate(-47.44 -61.76)"/><rect class="cls-2" x="141.81" y="226.55" width="137.97" height="115.17"/><path class="cls-2" d="M327.23,208.76V387.81a15.67,15.67,0,0,1-15.67,15.67H204.92a15.66,15.66,0,0,1-15.67-15.67v-179Z" transform="translate(-47.44 -61.76)"/><rect class="cls-6" x="211.69" y="147.01" width="46.42" height="194.71"/><rect class="cls-1" x="155.04" y="153.34" width="113.31" height="7.51" rx="3.06"/><path class="cls-6" d="M313.29,220.11H205a2.51,2.51,0,0,1,0-5H313.29a2.51,2.51,0,0,1,0,5Z" transform="translate(-47.44 -61.76)"/><path class="cls-2" d="M311.91,403.48H207a3.45,3.45,0,0,1,.14-.34,4.13,4.13,0,0,1,3.73-2.37h97.16a4.13,4.13,0,0,1,3.72,2.37A3.45,3.45,0,0,1,311.91,403.48Z" transform="translate(-47.44 -61.76)"/><polygon class="cls-7" points="188.41 11.62 153.06 96.85 153.06 132.6 270.33 132.6 270.33 98.3 231.31 11.62 188.41 11.62"/><path class="cls-3" d="M6.25,35.88H131.73a0,0,0,0,1,0,0v9.27a11.91,11.91,0,0,1-11.91,11.91H17.46A11.21,11.21,0,0,1,6.25,45.85v-10a0,0,0,0,1,0,0Z"/><rect class="cls-2" x="6.25" y="34.15" width="125.48" height="3.34"/><path class="cls-4" d="M6.25,70.35H131.73a0,0,0,0,1,0,0v9.27a11.91,11.91,0,0,1-11.91,11.91H17.46A11.21,11.21,0,0,1,6.25,80.31v-10a0,0,0,0,1,0,0Z"/><rect class="cls-2" x="6.25" y="68.61" width="125.48" height="3.34"/><path class="cls-3" d="M6.25,104.81H131.73a0,0,0,0,1,0,0v9.27A11.91,11.91,0,0,1,119.82,126H17.46A11.21,11.21,0,0,1,6.25,114.77v-10A0,0,0,0,1,6.25,104.81Z"/><rect class="cls-2" x="6.25" y="103.07" width="125.48" height="3.34"/><path class="cls-2" d="M314.19,175.17H202a1.6,1.6,0,1,1,0-3.19H314.19a1.6,1.6,0,1,1,0,3.19Z" transform="translate(-47.44 -61.76)"/><path class="cls-2" d="M314.19,149.17H202a1.6,1.6,0,0,1,0-3.2H314.19a1.6,1.6,0,1,1,0,3.2Z" transform="translate(-47.44 -61.76)"/><path class="cls-2" d="M314.19,108.43H202a1.6,1.6,0,1,1,0-3.2H314.19a1.6,1.6,0,1,1,0,3.2Z" transform="translate(-47.44 -61.76)"/><path class="cls-3" d="M234.89,68.59v1.07a2.94,2.94,0,0,0,2.94,2.94h40.51a2.94,2.94,0,0,0,2.94-2.94V68.59Z" transform="translate(-47.44 -61.76)"/><path class="cls-3" d="M156,157.52s2.31-1.89,5.1.54.82,4.8.82,4.8,4.72-3.62-1.19-11.52S156,157.52,156,157.52Z" transform="translate(-47.44 -61.76)"/><path class="cls-8" d="M139.62,252s-73.19-5.07-64-25.66c30-7.59,40.68.81,41.25,1.2S142.35,240.19,139.62,252Z" transform="translate(-47.44 -61.76)"/><path class="cls-9" d="M172.77,138.64l-.55.83c-.6.88-1.83,2.66-4.33,6.18-1.44,2-3.3,4.65-5.71,8l-3.17,4.4-4.95,6.86a5.44,5.44,0,0,1-6.54,1.84c-4.83-2.06-7-6.51-8-9.71a5.39,5.39,0,0,1,1.61-5.67l16.41-14.16,3.38-2.91,1.51-1.3,5.28-4.56.7-.61.16.4,3.61,8.91Z" transform="translate(-47.44 -61.76)"/><path class="cls-10" d="M172.21,140c-.59.85-1.8,2.57-4.25,6-1.42,2-3.25,4.49-5.61,7.74-2.64-.88-5.07-3.2-4.58-8.88A20.85,20.85,0,0,1,161.1,135c.27-.41.55-.79.84-1.16a14.58,14.58,0,0,1,4.8-4.07,8.44,8.44,0,0,1,1-.43,4.23,4.23,0,0,1,.84-.2,1.9,1.9,0,0,1,1.21.13c1,.56,2.09,4,2.34,8.48C172.2,138.43,172.22,139.18,172.21,140Z" transform="translate(-47.44 -61.76)"/><path class="cls-9" d="M184.1,133.32s-4.77,22-10.83,19.69c-7.69-2.87-13.51-8.15-12.21-16.13.63-3.91,5.29-9.61,8.18-12.84a5.53,5.53,0,0,1,5.85-1.54C179.21,123.87,185.31,127,184.1,133.32Z" transform="translate(-47.44 -61.76)"/><polygon class="cls-9" points="65.77 253.26 64.73 257.24 57.03 291.19 51.51 315.5 47.45 333.37 29.45 325.77 30.43 316.87 34.23 282.02 37.4 252.93 65.77 253.26"/><path class="cls-11" d="M101,375.28l3.64,7s17.12,4.14,19.17,7.62,1.76,8.42,1.76,8.42l-49.88-.57.62-14.31,20.45-2Z" transform="translate(-47.44 -61.76)"/><path class="cls-12" d="M96.73,389.1a.32.32,0,0,1-.22-.1.28.28,0,0,1,0-.4l8-6.58a.28.28,0,1,1,.36.44l-8,6.57A.26.26,0,0,1,96.73,389.1Z" transform="translate(-47.44 -61.76)"/><path class="cls-12" d="M103.38,390.66a.29.29,0,0,1-.2-.49l7-7.08a.28.28,0,1,1,.4.4l-7,7.08A.27.27,0,0,1,103.38,390.66Z" transform="translate(-47.44 -61.76)"/><polygon class="cls-10" points="57.03 291.19 51.51 315.5 30.38 321.3 34.18 286.46 57.03 291.19"/><path class="cls-11" d="M118.48,291.29c-1.31,18.3-4.92,63.23-6.5,82.84-3.07,1.88-7.78,3.17-13.15,3.92-10.24,1.43-22.89.87-31.2-1.35,0-1.49,5.13-79.55,5.05-80.58C70.47,265.43,62.41,241,75.61,226.4c8.55-9.48,27.13-4.46,27.13-4.46S105.45,246.14,118.48,291.29Z" transform="translate(-47.44 -61.76)"/><path class="cls-13" d="M118.48,291.29c-1.31,18.3-4.92,63.23-6.5,82.84-3.07,1.88-7.78,3.17-13.15,3.92L82.37,267.29l-2.86-39.81c9.74-8.26,23.23-5.54,23.23-5.54S105.45,246.14,118.48,291.29Z" transform="translate(-47.44 -61.76)"/><polygon class="cls-9" points="67.65 288.53 69.11 274.18 81.37 272.11 90.59 293.95 86.1 314.42 81.88 333.69 63.82 326.24 64.3 321.51 67.65 288.53"/><path class="cls-14" d="M135.23,375.56l3.69,6.93s17.15,4,19.23,7.48,1.82,8.41,1.82,8.41l-49.89-.19.52-14.33L131,381.72Z" transform="translate(-47.44 -61.76)"/><path class="cls-12" d="M131.11,389.41a.28.28,0,0,1-.18-.5l7.93-6.64a.27.27,0,0,1,.39,0,.28.28,0,0,1,0,.4l-7.93,6.64A.3.3,0,0,1,131.11,389.41Z" transform="translate(-47.44 -61.76)"/><path class="cls-12" d="M137.77,390.92a.32.32,0,0,1-.2-.08.28.28,0,0,1,0-.4l6.94-7.14a.29.29,0,0,1,.41.4L138,390.83A.25.25,0,0,1,137.77,390.92Z" transform="translate(-47.44 -61.76)"/><polygon class="cls-10" points="90.59 293.95 86.1 314.42 64.3 321.51 67.65 288.53 68.12 286.9 90.59 293.95"/><path class="cls-14" d="M82.43,223c-8,2.34-8.69,20.71-5.9,28.61,1.19,3.37,2.6,7.5,4.25,12.57,5,15.44,22.31,109.8,25.63,112.15s26.1,1.84,33.87-8.81c-2.35-64.8-14.47-128.66-14.47-128.66l-11.09-14.39Z" transform="translate(-47.44 -61.76)"/><path class="cls-15" d="M217.15,177.71l-2.21,9s-41.49,9.7-62.66,8.78c-9.67-.41-15.1-3-10.4-9.83a36.48,36.48,0,0,0,3.85-7.22c3.26-8,2.57-11.22,25.43-7C200,176.64,217.15,177.71,217.15,177.71Z" transform="translate(-47.44 -61.76)"/><path class="cls-16" d="M155.9,169.63l-10.58,25c-6.82-1.34-11.91-6.46-4.91-12,2.79-2.22,7.51-11.64,9.1-13.48Z" transform="translate(-47.44 -61.76)"/><path class="cls-17" d="M75.58,226.38c49.57,3,60.86,17.12,63.36,22.36a7.45,7.45,0,0,1,.68,2s15.18-49.94,19.53-65.55c1.72-6.15,6.38-7.46,6.22-12.84-.22-7.19-6.16-18-11.44-22.17-23.09-18.33-45.69,35.81-66.94,64-1.16,1.55-2.33,3-3.48,4.4A50.34,50.34,0,0,1,75.58,226.38Z" transform="translate(-47.44 -61.76)"/><path class="cls-18" d="M168.05,125.06s.79,2.43.51,3.18,2.07.51,2.07.51,6.63-.56,11.4,4.18,8.6-.53,8.73-4.26a4,4,0,0,0-2.24-3.72,4.28,4.28,0,0,1-2.1-3,4.86,4.86,0,0,0-3.47-4.18c-4.16-1.08-11.52-3.67-16.58-.5s-8.21,10.7-7.82,12.58S160.45,139.42,168.05,125.06Z" transform="translate(-47.44 -61.76)"/><path class="cls-9" d="M163.42,127.4c-.62,2,0,4,1.37,4.43s3-.89,3.6-2.92,0-4-1.37-4.44S164,125.36,163.42,127.4Z" transform="translate(-47.44 -61.76)"/><path class="cls-16" d="M165.22,130.59h-.08c-1-.47-1.36-2-.72-3.46s2-2.24,3.05-1.77a.18.18,0,0,1,.09.24.19.19,0,0,1-.25.1c-.85-.38-2,.33-2.55,1.59s-.31,2.57.53,2.95a.19.19,0,0,1,.1.25A.18.18,0,0,1,165.22,130.59Z" transform="translate(-47.44 -61.76)"/><path class="cls-9" d="M221.64,210.12,217,219.46S180.6,216.37,163.6,210c-7.77-2.9-11.49-6.48-5.87-10.76a31.15,31.15,0,0,0,5-4.86c4.79-5.68,5.06-8.46,22.57,1C207.42,207.32,221.64,210.12,221.64,210.12Z" transform="translate(-47.44 -61.76)"/><path class="cls-9" d="M216,219.2s5.61,1.77,10.54-.22c2.36-.95,6-2.43,6.46-3.21.23-.42-1.5-.24-1.89-.17l-3.39.34a29.59,29.59,0,0,1,7.75-1.1c.43,0,.63-.57.27-.75a9.14,9.14,0,0,0-7.14-.18,10,10,0,0,1,7.62-.65c1,.3.67-.62.49-.81-3.11-3.31-8.14-1.12-8.14-1.12a30.79,30.79,0,0,1,7.59-.58.31.31,0,0,0,.22-.54c-1.58-1.37-5.8-3.46-19,1.22C214.82,218.22,216,219.2,216,219.2Z" transform="translate(-47.44 -61.76)"/><path class="cls-9" d="M217.23,210.88s8.4-4.06,10.62-3.21,1.38,1.34.11,1.73-6.63,4.43-6.63,4.43Z" transform="translate(-47.44 -61.76)"/><path class="cls-17" d="M174.13,189.51,159.6,202.05l-3.19,2.76a1.84,1.84,0,0,1-2.64-.25c-5.63-7-28.63-37.17-19.38-47.87q.15-.18.33-.36c4.93-5.05,10.33-4.34,15.51-.8,9,6.15,17.34,20.86,21.37,28.75C173.21,187.44,174.13,189.51,174.13,189.51Z" transform="translate(-47.44 -61.76)"/><path class="cls-17" d="M171.6,184.28a16.84,16.84,0,0,1-22.49-1.72c-7.58-8.08-15.15-18.07-14.76-25.39a1.34,1.34,0,0,1,.36-.83h0c4.93-5.05,10.33-4.34,15.51-.8C159.24,161.68,167.57,176.39,171.6,184.28Z" transform="translate(-47.44 -61.76)"/><path class="cls-8" d="M155.5,206.11a.26.26,0,0,1-.18-.07c-3.86-3.32-10.61-11.84-16-21.7-3.62-6.56-9.3-18.68-6.61-26.08a.28.28,0,0,1,.36-.17.27.27,0,0,1,.17.36c-1.93,5.33.4,14.43,6.57,25.62,5.42,9.8,12.11,18.26,15.93,21.54a.29.29,0,0,1,0,.4A.28.28,0,0,1,155.5,206.11Z" transform="translate(-47.44 -61.76)"/><path class="cls-15" d="M211.31,186s5.61,1.78,10.53-.21c2.37-.95,6-2.43,6.46-3.21.24-.42-1.49-.24-1.88-.17l-3.39.34a29.59,29.59,0,0,1,7.75-1.1c.42,0,.63-.57.27-.75a9.09,9.09,0,0,0-7.14-.18,9.94,9.94,0,0,1,7.61-.65c1,.3.67-.62.5-.81-3.11-3.31-8.14-1.12-8.14-1.12a30.75,30.75,0,0,1,7.58-.58.31.31,0,0,0,.22-.54c-1.58-1.37-5.79-3.46-19,1.22C210.17,185,211.31,186,211.31,186Z" transform="translate(-47.44 -61.76)"/><path class="cls-9" d="M149.26,144.36l11.61,11.11s-1.82,4.62-5.8,0S143.2,149.59,149.26,144.36Z" transform="translate(-47.44 -61.76)"/><polygon class="cls-13" points="71.04 174.75 57.03 190.28 59.44 195.24 73.04 176.59 71.04 174.75"/><path class="cls-3" d="M145.8,142.29s3,10.44,9.17,13.79a9.27,9.27,0,0,0-4.78,3.57S141,149.51,139,144.05C141.07,141.49,145.8,142.29,145.8,142.29Z" transform="translate(-47.44 -61.76)"/><path class="cls-9" d="M278.63,208.21s-4.71-5.19-9.88-4.65a23.34,23.34,0,0,0-4.76.87.33.33,0,0,0,0,.65l2.54.28a.46.46,0,0,1,.13.89,15.27,15.27,0,0,1-8.73.95c-.4-.1-.73.26-.45.52,2.8,2.62,7.37,1.44,7.37,1.44s-4.72,1.27-8.7-.87c-.24-.13-.62.2-.5.43,2,3.95,8.53,2.88,8.53,2.88s-5,.13-7.66-1.13a.16.16,0,0,0-.22.19c.34,1.23,2.38,5,16.34,3.35a4.94,4.94,0,0,0,3.42-2C279.06,207.86,278.63,208.21,278.63,208.21Z" transform="translate(-47.44 -61.76)"/><path class="cls-19" d="M360.85,173.4s-10.94-8.92-33.38,6-54,24.08-54,24.08,1.94,9.81,3.12,9.9,32.4,2.19,51.13-6.94S369.85,180,360.85,173.4Z" transform="translate(-47.44 -61.76)"/><polygon class="cls-9" points="334.38 269.85 340.23 329.8 325.91 333.39 310.15 269.85 334.38 269.85"/><path class="cls-20" d="M366.76,380.61l-3.24,6s-15,3.46-16.83,6.48-1.62,7.33-1.62,7.33h43.59L388.25,388,370.41,386Z" transform="translate(-47.44 -61.76)"/><path class="cls-3" d="M370.32,392.81a.32.32,0,0,1-.21-.08l-6.91-5.82a.33.33,0,0,1,0-.47.34.34,0,0,1,.47,0l6.9,5.83a.32.32,0,0,1,0,.46A.32.32,0,0,1,370.32,392.81Z" transform="translate(-47.44 -61.76)"/><path class="cls-3" d="M364.49,394.11a.31.31,0,0,1-.23-.11l-6.05-6.25a.34.34,0,0,1,0-.47.33.33,0,0,1,.47,0l6,6.26a.32.32,0,0,1,0,.46A.33.33,0,0,1,364.49,394.11Z" transform="translate(-47.44 -61.76)"/><path class="cls-19" d="M387.62,220.86l-3.18-40c-.9-7.36-10-11.92-17.36-12.1l-10.8-.26C349,168.34,340,172.66,338.74,180l-1.8,36.25,8,25.7,35.1-.69Z" transform="translate(-47.44 -61.76)"/><path class="cls-9" d="M358.36,145.9s0,.14-.19.87c-.19.92-.56,2.81-1.26,6.59-.4,2.18-.91,5-1.56,8.61-.26,1.45-.54,3-.85,4.75-.4,2.23-.83,4.69-1.3,7.41a4.83,4.83,0,0,0,2.88,5.32c4.31,1.8,8.51.44,11.16-.91a4.8,4.8,0,0,0,2.62-4.55l-1.15-19.25-.23-4-.11-1.77-.36-6.2L368,142l-.35.14-7.92,3.23Z" transform="translate(-47.44 -61.76)"/><path class="cls-16" d="M357.87,147.07c-.18.9-.53,2.74-1.18,6.41-.37,2.13-.85,4.86-1.45,8.38,2.19,1.14,5.18,1.26,8.5-2.58a18.63,18.63,0,0,0,4.21-8.21q.14-.65.21-1.26a12.89,12.89,0,0,0-.38-5.59,6.09,6.09,0,0,0-.36-.92,5.68,5.68,0,0,0-.39-.67,1.7,1.7,0,0,0-.84-.68c-.95-.28-3.86,1.16-6.86,3.76C358.85,146.13,358.36,146.59,357.87,147.07Z" transform="translate(-47.44 -61.76)"/><path class="cls-21" d="M363.52,142.49a9.38,9.38,0,1,1-9.37-9.38A9.37,9.37,0,0,1,363.52,142.49Z" transform="translate(-47.44 -61.76)"/><circle class="cls-21" cx="319.24" cy="80.95" r="9.38"/><path class="cls-9" d="M363.19,135.29s-11.09-6.75-16.58,15.9c-4.35,11.39,6.74,10.91,10.1,10.31,8.68-1.53,10.16-7,12-9.64S372.06,137.3,363.19,135.29Z" transform="translate(-47.44 -61.76)"/><path class="cls-21" d="M348.65,139.66c.88,1.94,4.28,2.28,7.58.77s5.28-4.29,4.4-6.22-4.28-2.28-7.58-.77S347.77,137.73,348.65,139.66Z" transform="translate(-47.44 -61.76)"/><ellipse class="cls-22" cx="315" cy="74.2" rx="8.96" ry="7.37"/><path class="cls-21" d="M363.79,139.76s3,3,1.07,10.46,6.92,11,6.92,11-6.21-3.77-4.91-10.81,1.11-10.09-1.58-12.17S363.79,139.76,363.79,139.76Z" transform="translate(-47.44 -61.76)"/><path class="cls-9" d="M371.28,146.19c-.7,1.27-2,1.9-2.88,1.41s-1-1.92-.34-3.19,2-1.9,2.88-1.41S372,144.92,371.28,146.19Z" transform="translate(-47.44 -61.76)"/><path class="cls-21" d="M365.11,137.63s3.91,2.68,1.3,9.21,8.91,9.71,8.91,9.71-8-3.35-6.3-9.54,1.52-8.88-2-10.72S365.11,137.63,365.11,137.63Z" transform="translate(-47.44 -61.76)"/><path class="cls-23" d="M381.32,171.17l-.44,40,8.79,6.81s-5.71,24.39-6.81,24.61-42.41.88-42.41.88l-3.51-27.25,6.15-5.05-.88-39.34,5.27-2,2.2,16.93h24.83l.22-16.71Z" transform="translate(-47.44 -61.76)"/><path class="cls-3" d="M371.43,210.07H351.22a.23.23,0,0,1-.22-.2l-1.76-18.24a.27.27,0,0,1,.06-.17.24.24,0,0,1,.16-.07h24.17a.28.28,0,0,1,.17.07.23.23,0,0,1,.05.18l-2.2,18.23A.22.22,0,0,1,371.43,210.07Zm-20-.44h19.82l2.14-17.8H349.7Z" transform="translate(-47.44 -61.76)"/><path class="cls-3" d="M377.81,187.43a2.2,2.2,0,1,1,2.19-2.19A2.2,2.2,0,0,1,377.81,187.43Zm0-4a1.76,1.76,0,1,0,1.75,1.76A1.76,1.76,0,0,0,377.81,183.48Z" transform="translate(-47.44 -61.76)"/><path class="cls-3" d="M346.38,187.43a2.2,2.2,0,1,1,2.2-2.19A2.19,2.19,0,0,1,346.38,187.43Zm0-4a1.76,1.76,0,1,0,1.76,1.76A1.75,1.75,0,0,0,346.38,183.48Z" transform="translate(-47.44 -61.76)"/><polygon class="cls-9" points="301.46 269.85 303.39 329.79 289.71 336.25 275.43 269.85 301.46 269.85"/><path class="cls-24" d="M332.05,380.61l-3.25,6s-15,3.46-16.82,6.48-1.63,7.33-1.63,7.33h43.59l-.4-12.51L335.69,386Z" transform="translate(-47.44 -61.76)"/><path class="cls-3" d="M335.6,392.81a.32.32,0,0,1-.21-.08l-6.91-5.82a.33.33,0,1,1,.43-.51l6.9,5.83a.32.32,0,0,1,0,.46A.32.32,0,0,1,335.6,392.81Z" transform="translate(-47.44 -61.76)"/><path class="cls-3" d="M329.77,394.11a.31.31,0,0,1-.23-.11l-6.05-6.25a.34.34,0,0,1,0-.47.33.33,0,0,1,.47,0l6,6.26a.32.32,0,0,1,0,.46A.33.33,0,0,1,329.77,394.11Z" transform="translate(-47.44 -61.76)"/><path class="cls-23" d="M342.58,296.26c-.2,5.72,3.83,10.47,4.6,16.14.44,3.2-2.08,7-1.71,11.34.39,4.53,3.29,4.55,4.37,9.45.45,2.06-.28,4-.79,6h35.54c-1-4.22.72-7.39.63-11.86-.08-3.73-2.06-8.8-1.86-12.08.11-1.81,2.64-7.06,2.75-8.65.64-9.32-1.09-11.65.73-18.54.32-1.2.67-2.43,1.06-3.71,3.48-11.46,3.19-26.31-1.74-37.9l-.13-.31-1-9.22-42.46,7.2S343.82,261.31,342.58,296.26Z" transform="translate(-47.44 -61.76)"/><path class="cls-23" d="M320.67,327.41c-.18,3.5-1.32,5.76-1.53,9.23a8.47,8.47,0,0,0,.21,2.51h38c.27-7.08.68-14.27,1.31-20.65,1.13-11.6,6.86-24.8,15.62-30.52,22.68-14.85,10.82-51.1,10.82-51.1l-43.94,2s0,22.18-16.93,48.33c-3.11,4.81-.32,11.9-1.1,17.58-.44,3.2-3.8,6.52-4.61,10.76C317.63,320,320.93,322.4,320.67,327.41Z" transform="translate(-47.44 -61.76)"/><path class="cls-19" d="M384.63,232.44c-1.13-3.81-2.39-7.67-3.79-11.47V172.63C390.07,174,395.78,191,401.26,209c1.79,5.87.85,17.42.63,24.38Z" transform="translate(-47.44 -61.76)"/><path class="cls-3" d="M378.78,269.67a.33.33,0,0,1-.28-.16c-.44-.74-10.9-18.17-11.64-20a.33.33,0,0,1,.19-.43.32.32,0,0,1,.42.18c.73,1.81,11.49,19.75,11.59,19.93a.32.32,0,0,1-.11.45A.34.34,0,0,1,378.78,269.67Z" transform="translate(-47.44 -61.76)"/><path class="cls-3" d="M358.28,240.47a60.83,60.83,0,0,1-18.46-2.88.33.33,0,0,1,.2-.62c19.64,6.25,35.11.2,35.26.14a.33.33,0,1,1,.25.61,45.51,45.51,0,0,1-10.33,2.34A57.14,57.14,0,0,1,358.28,240.47Z" transform="translate(-47.44 -61.76)"/><path class="cls-3" d="M358.28,246.18a60.79,60.79,0,0,1-18.46-2.87.33.33,0,0,1-.21-.42.32.32,0,0,1,.41-.21c19.64,6.26,35.11.2,35.26.14a.33.33,0,0,1,.25.61,44.5,44.5,0,0,1-10.33,2.35A59.45,59.45,0,0,1,358.28,246.18Z" transform="translate(-47.44 -61.76)"/><path class="cls-19" d="M401.26,209s3.07,19.1-.22,26.58-22.79,29-22.79,29l-9.89-17.36,18.28-20.09Z" transform="translate(-47.44 -61.76)"/><path class="cls-24" d="M353.54,388l.4-6-17.85-1.32s-1.18,7-1.2,6.91S353.54,388,353.54,388Z" transform="translate(-47.44 -61.76)"/><path class="cls-20" d="M388.25,388.79l.41-6-17.85-1.32s-1.18,7-1.2,6.9S388.25,388.79,388.25,388.79Z" transform="translate(-47.44 -61.76)"/><path class="cls-3" d="M381.69,391.55a3.61,3.61,0,1,1-3.61-3.6A3.61,3.61,0,0,1,381.69,391.55Z" transform="translate(-47.44 -61.76)"/><circle class="cls-3" cx="295.09" cy="329.79" r="3.6"/><path class="cls-21" d="M356.32,132a8,8,0,1,1-8-8A8,8,0,0,1,356.32,132Z" transform="translate(-47.44 -61.76)"/><path class="cls-22" d="M385.28,134.33a8,8,0,1,1-8-8A8,8,0,0,1,385.28,134.33Z" transform="translate(-47.44 -61.76)"/></svg>